<svg xmlns:dc="http://purl.org/dc/elements/1.1/" xmlns:cc="http://creativecommons.org/ns#" xmlns:rdf="http://www.w3.org/1999/02/22-rdf-syntax-ns#" xmlns:svg="http://www.w3.org/2000/svg" xmlns="http://www.w3.org/2000/svg" xmlns:sodipodi="http://sodipodi.sourceforge.net/DTD/sodipodi-0.dtd" xmlns:inkscape="http://www.inkscape.org/namespaces/inkscape" version="1.1" x="0px" y="0px" viewBox="0 0 100 100"><g transform="translate(0,-952.36218)"><path d="m 13.00002,966.36217 c -3.84341,0 -7,3.15659 -7,7 l 0,58.00003 c 0,3.8434 3.15659,7 7,7 l 73.99996,0 c 3.8434,0 7,-3.1566 7,-7 l 0,-50.96878 c -10e-5,-1.04717 -0.9528,-1.9999 -2,-2 -0.036,-2.04777 -0.4593,-4.43313 -1.5312,-5.875 -1.7347,-1.93949 -4.2084,-2.12237 -6.4062,-2.125 l -45.75001,0 c -2.2813,-2.76282 -3.39651,-3.90936 -5.21875,-4.03125 -6.99843,-4e-5 -14.10212,0 -20.0938,0 z m 28.1875,8.03125 42.87496,0 c 2.9475,2.4e-4 3.8964,1.61265 3.875,4 -10.9967,-0.005 -29.87518,-0.0312 -42.93746,-0.0312 -0.01,3e-5 -0.75192,-0.26284 -1.65625,-1.21875 -0.82318,-0.92677 -1.55046,-1.90643 -2.15625,-2.75005 z" style="text-indent:0;text-transform:none;direction:ltr;block-progression:tb;baseline-shift:baseline;color:#000000;enable-background:accumulate;" fill="#000000" fill-opacity="1" stroke="none" marker="none" visibility="visible" display="inline" overflow="visible"></path></g></svg>